# xmcd
#
# Track frame offsets: 
#        150
#        33682
#        69037
#        112305
#        173777
#
# Disc length: 2789 seconds
#
# Revision: 0
# Processed by: cddbd v1.5.2PL0 Copyright (c) Steve Scherf et al.
# Submitted via: ExactAudioCopy v1.3
#
DISCID=400ae305
DTITLE=Jerry García Band - Constitution Hall - Set 2
DYEAR=1983
DGENRE=Blues
TTITLE0=The Way You Do The Things You Do
TTITLE1=They Love Each Other
TTITLE2=The Night They Drove Old Dixie Down
TTITLE3=Tangled Up In Blue
TTITLE4=How Sweet It Is (To Be Loved By You)
EXTD=
EXTT0=
EXTT1=
EXTT2=
EXTT3=
EXTT4=
PLAYORDER=
